<svg xmlns="http://www.w3.org/2000/svg" width="1160" height="650">
  <rect x="0" y="0" width="100%" height="100%" fill="white"/>
  <line x1="90.0" y1="580.0" x2="1060.0" y2="580.0" stroke="#333" stroke-width="1.2"/>
  <line x1="90.0" y1="40.0" x2="90.0" y2="580.0" stroke="#333" stroke-width="1.2"/>
  <line x1="313.84615384615387" y1="40.0" x2="313.84615384615387" y2="580.0" stroke="#666" stroke-dasharray="6,6" stroke-width="1.3"/>
  <line x1="910.7692307692307" y1="40.0" x2="910.7692307692307" y2="580.0" stroke="#111" stroke-dasharray="6,6" stroke-width="1.3"/>
  <polyline fill="none" stroke="#D55E00" stroke-width="2.8" stroke-dasharray="8,6" points="90.0,474.37577224645 164.6153846153846,503.2616547796867 239.23076923076923,462.42948511968865 313.84615384615387,462.9805074784223 388.46153846153845,329.80678164814304 463.0769230769231,472.82424639101873 537.6923076923077,580.0 612.3076923076923,509.3457047541247 686.9230769230769,473.98646590578664 761.5384615384615,450.0984512580416 836.1538461538462,404.20199945471387 910.7692307692307,379.83719103044893 985.3846153846155,396.26767345471586 1060.0,381.05834045015087"/>
  <polyline fill="none" stroke="#0072B2" stroke-width="2.8" points="90.0,492.36907369260064 164.6153846153846,459.9244317060309 239.23076923076923,421.940065825573 313.84615384615387,383.0898548058868 388.46153846153845,417.80093484773215 463.0769230769231,371.3600733600939 537.6923076923077,350.7693217317461 612.3076923076923,326.5261277065217 686.9230769230769,265.7183997149118 761.5384615384615,243.86701359363613 836.1538461538462,217.4374960707416 910.7692307692307,174.01137340746195 985.3846153846155,174.59550569550964 1060.0,40.0"/>
  <text x="90.0" y="24" font-size="16" font-family="Times New Roman">Mean Salary by MHI Affiliation with Regime Knots</text>
  <text x="318.84615384615387" y="58.0" font-size="12" font-family="Times New Roman">2014 knot</text>
  <text x="915.7692307692307" y="74.0" font-size="12" font-family="Times New Roman">2022 knot</text>
  <line x1="1060.0" y1="381.05834045015087" x2="1068.0" y2="381.05834045015087" stroke="#D55E00" stroke-width="2.8" stroke-dasharray="8,6"/>
  <line x1="1060.0" y1="40.0" x2="1068.0" y2="40.0" stroke="#0072B2" stroke-width="2.8"/>
  <text x="1072.0" y="385.05834045015087" font-size="12" fill="#111" font-family="Times New Roman">MHI</text>
  <text x="1072.0" y="44.0" font-size="12" fill="#111" font-family="Times New Roman">Non-MHI</text>
</svg>